<svg width="22" height="22" viewBox="0 0 22 22" fill="none" xmlns="http://www.w3.org/2000/svg">
<path d="M3.14108 0.536878L11 8.39599L18.8589 0.536878C19.5144 -0.118568 20.553 -0.179611 21.3288 0.426547L21.4631 0.548826C22.179 1.26466 22.179 2.42526 21.4631 3.14111L13.604 11L21.4631 18.8589C22.1186 19.5143 22.1796 20.553 21.5734 21.3288L21.4512 21.4631C20.7354 22.179 19.5747 22.179 18.8589 21.4631L11 13.604L3.14108 21.4631C2.48563 22.1186 1.44704 22.1796 0.671158 21.5735L0.536881 21.4512C-0.178956 20.7353 -0.178964 19.5747 0.536881 18.8589L8.39597 11L0.536881 3.1411C-0.118565 2.48566 -0.179608 1.44703 0.42655 0.671152L0.548798 0.536878C1.26464 -0.178959 2.42524 -0.178959 3.14108 0.536878ZM1.85963 21.0832C1.85474 21.0833 1.84985 21.0833 1.84497 21.0833L1.85963 21.0832ZM1.98131 21.0732L1.94114 21.0783C1.95446 21.0769 1.96791 21.0752 1.98131 21.0732ZM1.70985 21.0734L1.72619 21.0756C1.72064 21.0749 1.71538 21.0742 1.70985 21.0734ZM1.59465 21.0487L1.60897 21.0526C1.60403 21.0513 1.59958 21.0501 1.59465 21.0487ZM2.09769 21.048L2.04829 21.0606C2.0648 21.0569 2.08129 21.0527 2.09769 21.048ZM2.20142 21.0114L2.16332 21.0265C2.17601 21.0218 2.18874 21.0168 2.20142 21.0114ZM1.48835 21.0114C1.49053 21.0123 1.49286 21.0133 1.48835 21.0114ZM1.38081 20.9574L1.28335 20.8912C1.32406 20.9228 1.36677 20.9506 1.41108 20.9744L1.38081 20.9574ZM2.30867 20.9576L2.27919 20.9742C2.28887 20.969 2.2988 20.9634 2.30867 20.9576ZM20.9744 20.5889L20.9573 20.6192L20.8912 20.7167C20.9228 20.676 20.9506 20.6332 20.9744 20.5889ZM21.0251 20.4771L21.0114 20.5117C21.0163 20.5001 21.0208 20.4886 21.0251 20.4771ZM21.0602 20.3601L21.0486 20.4053C21.0528 20.3907 21.0567 20.3754 21.0602 20.3601ZM21.0782 20.2518L21.0734 20.2902C21.0752 20.2776 21.0769 20.2647 21.0782 20.2518ZM20.155 1.83301L11 10.9883L1.84497 1.83301L1.83299 1.84496L10.9883 11L1.83299 20.155L1.84497 20.167L11 11.0117L20.155 20.167L20.167 20.155L11.0117 11L20.167 1.84496L20.155 1.83301ZM21.0832 20.1404L21.0833 20.167C21.0834 20.1582 21.0834 20.1493 21.0832 20.1404ZM21.0732 20.0187L21.0783 20.0589C21.0769 20.0455 21.0752 20.0321 21.0732 20.0187ZM21.048 19.9023L21.0606 19.9517C21.0569 19.9352 21.0527 19.9187 21.048 19.9023ZM21.0114 19.7986L21.0265 19.8367C21.0218 19.824 21.0168 19.8112 21.0114 19.7986ZM20.9576 19.6913L20.9742 19.7208C20.969 19.7111 20.9634 19.7012 20.9576 19.6913ZM1.02582 2.27918L1.03964 2.30397C1.03482 2.29564 1.03036 2.28762 1.02582 2.27918ZM0.973506 2.16329L0.985815 2.19487C0.981477 2.18436 0.977437 2.17394 0.973506 2.16329ZM0.939377 2.04831L0.947434 2.08093C0.944552 2.07007 0.941854 2.05924 0.939377 2.04831ZM0.921306 1.93748L0.924327 1.96376C0.923184 1.95496 0.922194 1.9463 0.921306 1.93748ZM0.917054 1.81837L0.916662 1.84496C0.916662 1.83604 0.916794 1.82729 0.917054 1.81837ZM0.926621 1.70983L0.924327 1.72617C0.925048 1.72063 0.9258 1.71536 0.926621 1.70983ZM0.951351 1.59468L0.947434 1.609C0.948746 1.60406 0.949954 1.5996 0.951351 1.59468ZM0.988613 1.48835C0.98769 1.49053 0.986719 1.49286 0.988613 1.48835ZM1.04266 1.38083L1.10885 1.28333C1.0772 1.32404 1.04943 1.3668 1.02559 1.41111L1.04266 1.38083ZM2.27879 1.02561L2.30912 1.04265L2.40658 1.10883C2.36588 1.07718 2.3231 1.04944 2.27879 1.02561ZM19.7208 1.0258L19.696 1.03965C19.7044 1.03483 19.7124 1.03034 19.7208 1.0258ZM1.41075 1.0258L1.38596 1.03965C1.39429 1.03483 1.40231 1.03034 1.41075 1.0258ZM20.5889 1.02561L20.6192 1.04265L20.7166 1.10883C20.6759 1.07718 20.6332 1.04944 20.5889 1.02561ZM1.52298 0.974863L1.49506 0.985843C1.5043 0.982031 1.51364 0.978361 1.52298 0.974863ZM2.16315 0.97344L2.20159 0.988641C2.18877 0.983236 2.17601 0.97819 2.16315 0.97344ZM19.8367 0.973499L19.8051 0.985843C19.8156 0.981504 19.826 0.97743 19.8367 0.973499ZM20.4771 0.974881L20.5117 0.988641C20.5001 0.983773 20.4886 0.979208 20.4771 0.974881ZM1.64014 0.939724L1.60897 0.947413C1.61923 0.944691 1.62981 0.942085 1.64014 0.939724ZM2.04823 0.939374L2.09786 0.952071C2.08134 0.947348 2.06481 0.94313 2.04823 0.939374ZM19.9517 0.939388L19.9191 0.947413C19.93 0.944531 19.9408 0.941865 19.9517 0.939388ZM20.3601 0.939787L20.4053 0.951337C20.3907 0.947181 20.3754 0.943285 20.3601 0.939787ZM1.75209 0.921352L1.72619 0.924352C1.73474 0.92324 1.74351 0.922222 1.75209 0.921352ZM1.93734 0.921306L1.9812 0.926796C1.96665 0.924619 1.95202 0.922785 1.93734 0.921306ZM20.0625 0.92132L20.0363 0.924352C20.045 0.923209 20.0537 0.922208 20.0625 0.92132ZM20.2481 0.921376L20.2901 0.926625C20.2764 0.924575 20.2623 0.922811 20.2481 0.921376ZM20.1285 0.917047L20.1818 0.917054C20.164 0.916538 20.1462 0.916535 20.1285 0.917047ZM1.81822 0.917054L1.87154 0.917047C1.85377 0.916535 1.83599 0.916538 1.81822 0.917054Z" fill="url(#paint0_linear_21440_29)"/>
<defs>
<linearGradient id="paint0_linear_21440_29" x1="1100" y1="0" x2="1100" y2="2200" gradientUnits="userSpaceOnUse">
<stop stop-color="#FC4343"/>
<stop offset="1" stop-color="#F82020"/>
</linearGradient>
</defs>
</svg>
