<svg width="20" height="20" viewBox="0 0 20 20" fill="none" xmlns="http://www.w3.org/2000/svg">
<g clip-path="url(#clip0_2_705)">
<path d="M18.8992 7.69502C17.6439 5.6482 14.7885 2.21414 9.77698 2.21414C4.76547 2.21414 1.91008 5.6482 0.654773 7.69502C0.266711 8.32342 0.0611572 9.04761 0.0611572 9.78641C0.0611572 10.5252 0.266711 11.2494 0.654773 11.8778C1.91008 13.9246 4.76547 17.3587 9.77698 17.3587C14.7885 17.3587 17.6439 13.9246 18.8992 11.8778C19.2873 11.2494 19.4928 10.5252 19.4928 9.78641C19.4928 9.04761 19.2873 8.32342 18.8992 7.69502ZM17.5192 11.0294C16.4412 12.7845 14.001 15.7381 9.77698 15.7381C5.55297 15.7381 3.11278 12.7845 2.03472 11.0294C1.80416 10.6559 1.68204 10.2255 1.68204 9.78641C1.68204 9.34733 1.80416 8.91692 2.03472 8.54341C3.11278 6.78829 5.55297 3.83475 9.77698 3.83475C14.001 3.83475 16.4412 6.78505 17.5192 8.54341C17.7498 8.91692 17.8719 9.34733 17.8719 9.78641C17.8719 10.2255 17.7498 10.6559 17.5192 11.0294Z" fill="#757575"/>
<path d="M9.77693 5.73489C8.97655 5.73489 8.19415 5.97251 7.52867 6.4177C6.86318 6.86288 6.3445 7.49564 6.03821 8.23596C5.73192 8.97627 5.65178 9.7909 5.80792 10.5768C5.96407 11.3627 6.34948 12.0846 6.91543 12.6512C7.48138 13.2179 8.20245 13.6037 8.98744 13.7601C9.77244 13.9164 10.5861 13.8362 11.3256 13.5295C12.065 13.2229 12.697 12.7036 13.1417 12.0373C13.5864 11.371 13.8237 10.5877 13.8237 9.7864C13.8224 8.71227 13.3956 7.6825 12.637 6.92297C11.8784 6.16345 10.8498 5.73618 9.77693 5.73489ZM9.77693 12.2173C9.2967 12.2173 8.82726 12.0747 8.42797 11.8076C8.02868 11.5405 7.71747 11.1609 7.53369 10.7167C7.34992 10.2725 7.30184 9.7837 7.39552 9.31216C7.48921 8.84061 7.72046 8.40746 8.06003 8.06749C8.3996 7.72752 8.83224 7.496 9.30324 7.40221C9.77423 7.30841 10.2624 7.35655 10.7061 7.54054C11.1498 7.72453 11.529 8.0361 11.7958 8.43586C12.0626 8.83562 12.205 9.30561 12.205 9.7864C12.205 10.4311 11.9492 11.0494 11.4938 11.5053C11.0385 11.9612 10.4209 12.2173 9.77693 12.2173Z" fill="#757575"/>
</g>
<defs>
<clipPath id="clip0_2_705">
<rect width="19.4245" height="19.4472" fill="white" transform="translate(0.0647278 0.0628052)"/>
</clipPath>
</defs>
</svg>
