<svg width="22" height="22" viewBox="0 0 22 22" fill="none" xmlns="http://www.w3.org/2000/svg">
<g clip-path="url(#clip0_21452_539)">
<path d="M21.5971 5.66645L16.3323 0.402947C15.7953 -0.13399 14.9249 -0.13399 14.388 0.402947L0 14.792V22.0001H7.20947L21.5971 7.61242C22.1344 7.07376 22.1344 6.2051 21.5971 5.66645ZM6.1875 19.2501H2.75V15.8126L2.80913 15.7534L6.24663 19.1909L6.1875 19.2501ZM8.19088 17.2467L4.75338 13.8092L15.125 3.43757L18.5625 6.87507L8.19088 17.2467Z" fill="#85B839"/>
<path d="M6.1875 19.25H2.75V15.8125L2.80912 15.7534L6.24663 19.1909L6.1875 19.25Z" fill="white"/>
<path d="M18.5624 6.87481L15.125 3.43738L4.75363 13.8087L8.19107 17.2462L18.5624 6.87481Z" fill="#85B839"/>
</g>
<defs>
<clipPath id="clip0_21452_539">
<rect width="22" height="22" fill="white"/>
</clipPath>
</defs>
</svg>
