<svg width="31" height="30" viewBox="0 0 31 30" fill="none" xmlns="http://www.w3.org/2000/svg">
<g clip-path="url(#clip0_2_700)">
<path d="M9.86463 9.43716C10.6251 8.61682 11.5091 8.0002 12.4509 7.57612C15.5807 6.16685 19.3897 6.8941 21.7576 9.59885L23.3933 8.1976C23.4842 8.11975 23.63 8.19177 23.6387 8.31376L24.0455 13.8017C24.0505 13.8931 23.9662 13.9654 23.88 13.9435L18.5301 12.6959C18.4082 12.6652 18.3625 12.513 18.4534 12.4352L20.0858 11.0367C18.5209 9.26495 16.1035 8.67941 13.9755 9.35992C13.171 9.61574 12.4104 10.0479 11.7561 10.6702C10.8566 11.5252 10.2928 12.6217 10.0695 13.7811C9.95173 14.3998 9.34542 14.7954 8.73261 14.6506C8.14944 14.5142 7.78531 13.9369 7.9007 13.3484C8.17247 11.9168 8.82963 10.5546 9.86463 9.43716ZM21.3205 16.4739C21.1032 17.6337 20.5361 18.733 19.6338 19.5848C18.9764 20.2099 18.213 20.6388 17.4145 20.8951C15.2865 21.5756 12.8658 20.9928 11.3042 19.2183L12.9366 17.8198C13.0275 17.742 12.979 17.5866 12.8599 17.5591L7.5072 16.3083C7.4178 16.2892 7.33342 16.3615 7.34169 16.4501L7.7457 21.9348C7.75718 22.06 7.90028 22.1288 7.99115 22.0509L9.62681 20.6497C11.9915 23.3572 15.8033 24.0877 18.9335 22.6724C19.8753 22.2483 20.7565 21.6285 21.5198 20.8114C22.5576 19.6972 23.2147 18.335 23.4865 16.9034C23.5991 16.3116 23.2378 15.7375 22.6546 15.6011C22.0446 15.4596 21.4383 15.8552 21.3205 16.4739Z" fill="#757575" stroke="white" stroke-width="0.3"/>
</g>
<defs>
<clipPath id="clip0_2_700">
<rect width="20.9964" height="20.9926" fill="white" transform="matrix(0.649713 0.76018 -0.759427 0.650592 16.8421 0.314331)"/>
</clipPath>
</defs>
</svg>
